<svg width="30" height="30" viewBox="0 0 30 30" fill="none" xmlns="http://www.w3.org/2000/svg">
<path d="M28.75 15L25.7 11.5125L26.125 6.9L21.6125 5.875L19.25 1.875L15 3.7L10.75 1.875L8.3875 5.8625L3.875 6.875L4.3 11.5L1.25 15L4.3 18.4875L3.875 23.1125L8.3875 24.1375L10.75 28.125L15 26.2875L19.25 28.1125L21.6125 24.125L26.125 23.1L25.7 18.4875L28.75 15ZM11.725 20.0125L8.75 17.0125C8.63412 16.8969 8.54219 16.7595 8.47946 16.6083C8.41673 16.4571 8.38445 16.295 8.38445 16.1312C8.38445 15.9675 8.41673 15.8054 8.47946 15.6542C8.54219 15.503 8.63412 15.3656 8.75 15.25L8.8375 15.1625C9.325 14.675 10.125 14.675 10.6125 15.1625L12.625 17.1875L19.0625 10.7375C19.55 10.25 20.35 10.25 20.8375 10.7375L20.925 10.825C21.4125 11.3125 21.4125 12.1 20.925 12.5875L13.525 20.0125C13.0125 20.5 12.225 20.5 11.725 20.0125Z" fill="white"/>
</svg>
