<svg width="46" height="46" viewBox="0 0 46 46" fill="none" xmlns="http://www.w3.org/2000/svg">
<path d="M44.0834 23L39.4067 17.6525L40.0584 10.58L33.1392 9.00833L29.5167 2.875L23 5.67333L16.4834 2.875L12.8609 8.98917L5.94169 10.5417L6.59335 17.6333L1.91669 23L6.59335 28.3475L5.94169 35.4392L12.8609 37.0108L16.4834 43.125L23 40.3075L29.5167 43.1058L33.1392 36.9917L40.0584 35.42L39.4067 28.3475L44.0834 23ZM17.9784 30.6858L13.4167 26.0858C13.239 25.9085 13.098 25.6979 13.0019 25.466C12.9057 25.2342 12.8562 24.9856 12.8562 24.7346C12.8562 24.4836 12.9057 24.235 13.0019 24.0031C13.098 23.7713 13.239 23.5606 13.4167 23.3833L13.5509 23.2492C14.2984 22.5017 15.525 22.5017 16.2725 23.2492L19.3584 26.3542L29.2292 16.4642C29.9767 15.7167 31.2034 15.7167 31.9509 16.4642L32.085 16.5983C32.8325 17.3458 32.8325 18.5533 32.085 19.3008L20.7384 30.6858C19.9525 31.4333 18.745 31.4333 17.9784 30.6858Z" fill="black"/>
</svg>
